<svg width="24" height="25" viewBox="0 0 24 25" fill="none" xmlns="http://www.w3.org/2000/svg">
<path d="M18.75 10.25C18.75 8.45979 18.0388 6.7429 16.773 5.47703C15.5071 4.21116 13.7902 3.5 12 3.5C10.2098 3.5 8.4929 4.21116 7.22703 5.47703C5.96116 6.7429 5.25 8.45979 5.25 10.25C5.25 13.019 7.4655 16.628 12 20.951C16.5345 16.628 18.75 13.019 18.75 10.25ZM12 23C6.4995 18.0005 3.75 13.7495 3.75 10.25C3.75 8.06196 4.61919 5.96354 6.16637 4.41637C7.71354 2.86919 9.81196 2 12 2C14.188 2 16.2865 2.86919 17.8336 4.41637C19.3808 5.96354 20.25 8.06196 20.25 10.25C20.25 13.7495 17.5005 18.0005 12 23Z" fill="black"/>
<path d="M12 12.5C12.5967 12.5 13.169 12.2629 13.591 11.841C14.0129 11.419 14.25 10.8467 14.25 10.25C14.25 9.65326 14.0129 9.08097 13.591 8.65901C13.169 8.23705 12.5967 8 12 8C11.4033 8 10.831 8.23705 10.409 8.65901C9.98705 9.08097 9.75 9.65326 9.75 10.25C9.75 10.8467 9.98705 11.419 10.409 11.841C10.831 12.2629 11.4033 12.5 12 12.5ZM12 14C11.0054 14 10.0516 13.6049 9.34835 12.9017C8.64509 12.1984 8.25 11.2446 8.25 10.25C8.25 9.25544 8.64509 8.30161 9.34835 7.59835C10.0516 6.89509 11.0054 6.5 12 6.5C12.9946 6.5 13.9484 6.89509 14.6517 7.59835C15.3549 8.30161 15.75 9.25544 15.75 10.25C15.75 11.2446 15.3549 12.1984 14.6517 12.9017C13.9484 13.6049 12.9946 14 12 14Z" fill="black"/>
</svg>
