<svg width="14" height="13" viewBox="0 0 14 13" fill="none" xmlns="http://www.w3.org/2000/svg">
<path d="M7.50005 13C7.43327 13 7.36716 12.9867 7.30562 12.9607C7.24409 12.9348 7.18838 12.8968 7.14177 12.8489C7.09517 12.8011 7.05861 12.7444 7.03427 12.6823C7.00993 12.6201 6.99829 12.5536 7.00005 12.4869V6.75406C7.00005 6.68776 6.97371 6.62417 6.92682 6.57729C6.87994 6.5304 6.81635 6.50406 6.75005 6.50406H1.01286C0.907696 6.50531 0.804723 6.47399 0.718059 6.41441C0.631396 6.35482 0.565287 6.26989 0.528797 6.17125C0.487242 6.05362 0.491163 5.92471 0.539789 5.80982C0.588416 5.69493 0.678235 5.60237 0.79161 5.55031L12.7916 0.0456266C12.8843 0.0031474 12.9878 -0.00996729 13.0882 0.00804141C13.1886 0.0260501 13.281 0.074321 13.3532 0.14638C13.4253 0.218439 13.4737 0.31084 13.4919 0.411191C13.51 0.511542 13.4971 0.615044 13.4547 0.707814L7.95473 12.7078C7.91491 12.795 7.85088 12.8688 7.77027 12.9206C7.68966 12.9724 7.59587 13 7.50005 13Z" fill="#242424"/>
</svg>
