<svg width="17" height="17" viewBox="0 0 17 17" fill="none" xmlns="http://www.w3.org/2000/svg">
<path d="M8.5 13.2222C8.76759 13.2222 8.99206 13.1316 9.17339 12.9502C9.35472 12.7689 9.44507 12.5447 9.44444 12.2778C9.44381 12.0108 9.35315 11.7867 9.17244 11.6053C8.99174 11.424 8.76759 11.3333 8.5 11.3333C8.23241 11.3333 8.00826 11.424 7.82756 11.6053C7.64685 11.7867 7.55618 12.0108 7.55556 12.2778C7.55493 12.5447 7.64559 12.7692 7.82756 12.9512C8.00952 13.1331 8.23367 13.2235 8.5 13.2222ZM8.5 9.44444C8.76759 9.44444 8.99206 9.35378 9.17339 9.17244C9.35472 8.99111 9.44507 8.76696 9.44444 8.5V4.72222C9.44444 4.45463 9.35378 4.23048 9.17244 4.04978C8.99111 3.86907 8.76696 3.77841 8.5 3.77778C8.23304 3.77715 8.00889 3.86781 7.82756 4.04978C7.64622 4.23174 7.55556 4.45589 7.55556 4.72222V8.5C7.55556 8.76759 7.64622 8.99206 7.82756 9.17339C8.00889 9.35472 8.23304 9.44507 8.5 9.44444ZM5.7375 17C5.48565 17 5.24576 16.9528 5.01783 16.8583C4.78991 16.7639 4.58906 16.6301 4.41528 16.4569L0.543056 12.5847C0.369907 12.4116 0.236111 12.2107 0.141667 11.9822C0.0472223 11.7536 0 11.514 0 11.2634V5.73844C0 5.48659 0.0472223 5.2467 0.141667 5.01878C0.236111 4.79085 0.369907 4.59 0.543056 4.41622L4.41528 0.544C4.58843 0.370852 4.78928 0.237056 5.01783 0.142611C5.24639 0.0481667 5.48628 0.00062963 5.7375 0H11.2625C11.5144 0 11.7546 0.0472223 11.9831 0.141667C12.2117 0.236111 12.4122 0.369907 12.5847 0.543056L16.4569 4.41528C16.6301 4.58843 16.7639 4.78928 16.8583 5.01783C16.9528 5.24639 17 5.48628 17 5.7375V11.2625C17 11.5144 16.9528 11.7546 16.8583 11.9831C16.7639 12.2117 16.6301 12.4122 16.4569 12.5847L12.5847 16.4569C12.4116 16.6301 12.2107 16.7639 11.9822 16.8583C11.7536 16.9528 11.5137 17 11.2625 17H5.7375Z" fill="#242424"/>
</svg>
